<?xml version="1.0" encoding="UTF-8"?>
<!DOCTYPE svg PUBLIC "-//W3C//DTD SVG 1.1//EN" "http://www.w3.org/Graphics/SVG/1.1/DTD/svg11.dtd">
<svg xmlns="http://www.w3.org/2000/svg" xmlns:xlink="http://www.w3.org/1999/xlink" version="1.1" width="639px" height="639px" viewBox="-0.5 -0.5 639 639" style="background-color: rgb(255, 255, 255);"><defs/><g><rect x="-1" y="-1" width="640" height="640" fill="#000000" stroke="none" pointer-events="all"/><path d="M 357.66 598.53 L 278.35 598.47 L 278.67 159.66 L 198.17 159.61 L 318.41 39.5 L 438.48 159.78 L 357.98 159.72 Z" fill="#006600" stroke="none" pointer-events="all"/><path d="M 158.8 359.19 L 158.8 439.69 L 39.5 318.5 L 158.8 197.31 L 158.8 277.81 L 319 277.81 L 458.83 277.81 L 458.83 197.31 L 598.5 318.5 L 458.83 439.69 L 458.83 359.19 L 319 359.19 Q 319 359.19 319 359.19 Z" fill="#006600" stroke="none" pointer-events="all"/><path d="M 158.8 359.19 L 158.8 439.69 L 39.5 318.5 L 158.8 197.31 L 158.8 277.81" fill="none" stroke="none" pointer-events="all"/><path d="M 458.83 277.81 L 458.83 197.31 L 598.5 318.5 L 458.83 439.69 L 458.83 359.19" fill="none" stroke="none" pointer-events="all"/></g></svg>