<?xml version="1.0" encoding="UTF-8"?>
<!DOCTYPE svg PUBLIC "-//W3C//DTD SVG 1.1//EN" "http://www.w3.org/Graphics/SVG/1.1/DTD/svg11.dtd">
<svg xmlns="http://www.w3.org/2000/svg" xmlns:xlink="http://www.w3.org/1999/xlink" version="1.1" width="399px" height="399px" viewBox="-0.5 -0.5 399 399" style="background-color: rgb(255, 255, 255);"><defs/><g><rect x="-1" y="-1" width="400" height="400" fill="#000000" stroke="none" pointer-events="all"/><path d="M 74.35 74 L 324 74" fill="none" stroke="#006600" stroke-miterlimit="10" pointer-events="stroke"/><path d="M 74.35 101.78 L 324 101.78" fill="none" stroke="#006600" stroke-width="2" stroke-miterlimit="10" pointer-events="stroke"/><path d="M 74.35 129.56 L 324 129.56" fill="none" stroke="#006600" stroke-width="2" stroke-miterlimit="10" pointer-events="stroke"/><path d="M 74.35 157.33 L 324 157.33" fill="none" stroke="#006600" stroke-width="2" stroke-miterlimit="10" pointer-events="stroke"/><path d="M 74.35 185.11 L 324 185.11" fill="none" stroke="#006600" stroke-width="2" stroke-miterlimit="10" pointer-events="stroke"/><path d="M 74.35 212.89 L 324 212.89" fill="none" stroke="#006600" stroke-width="2" stroke-miterlimit="10" pointer-events="stroke"/><path d="M 74.35 240.67 L 324 240.67" fill="none" stroke="#006600" stroke-width="4" stroke-miterlimit="10" pointer-events="stroke"/><path d="M 74.35 268.44 L 324 268.44" fill="none" stroke="#006600" stroke-width="2" stroke-miterlimit="10" pointer-events="stroke"/><path d="M 74.35 296.22 L 324 296.22" fill="none" stroke="#006600" stroke-width="2" stroke-miterlimit="10" pointer-events="stroke"/><path d="M 74.35 324 L 324 324" fill="none" stroke="#006600" stroke-miterlimit="10" pointer-events="stroke"/><path d="M 324 324 L 324 74" fill="none" stroke="#006600" stroke-miterlimit="10" pointer-events="stroke"/><path d="M 296.26 324 L 296.26 74" fill="none" stroke="#006600" stroke-width="2" stroke-miterlimit="10" pointer-events="stroke"/><path d="M 268.52 324 L 268.52 74" fill="none" stroke="#006600" stroke-width="2" stroke-miterlimit="10" pointer-events="stroke"/><path d="M 240.78 324 L 240.78 74" fill="none" stroke="#006600" stroke-miterlimit="10" pointer-events="stroke"/><path d="M 213.04 324 L 213.04 74" fill="none" stroke="#006600" stroke-width="2" stroke-miterlimit="10" pointer-events="stroke"/><path d="M 185.3 324 L 185.3 74" fill="none" stroke="#006600" stroke-width="2" stroke-miterlimit="10" pointer-events="stroke"/><path d="M 157.56 324 L 157.56 74" fill="none" stroke="#006600" stroke-miterlimit="10" pointer-events="stroke"/><path d="M 129.83 324 L 129.83 74" fill="none" stroke="#006600" stroke-width="2" stroke-miterlimit="10" pointer-events="stroke"/><path d="M 102.09 324 L 102.09 74" fill="none" stroke="#006600" stroke-width="2" stroke-miterlimit="10" pointer-events="stroke"/><path d="M 74.35 324 L 74.35 74" fill="none" stroke="#006600" stroke-miterlimit="10" pointer-events="stroke"/><path d="M 323.65 326 L 323.65 72" fill="none" stroke="#006600" stroke-width="4" stroke-miterlimit="10" pointer-events="stroke"/><path d="M 74 324 L 325 324" fill="none" stroke="#006600" stroke-width="4" stroke-miterlimit="10" pointer-events="stroke"/><path d="M 74 74 L 323.65 74" fill="none" stroke="#006600" stroke-width="4" stroke-miterlimit="10" pointer-events="stroke"/><path d="M 74 326 L 74 72" fill="none" stroke="#006600" stroke-width="4" stroke-miterlimit="10" pointer-events="stroke"/><path d="M 157.22 324 L 157.22 74" fill="none" stroke="#006600" stroke-width="4" stroke-miterlimit="10" pointer-events="stroke"/><path d="M 240.44 324 L 240.44 74" fill="none" stroke="#006600" stroke-width="4" stroke-miterlimit="10" pointer-events="stroke"/><path d="M 74.18 157.33 L 323.83 157.33" fill="none" stroke="#006600" stroke-width="4" stroke-miterlimit="10" pointer-events="stroke"/></g></svg>